<svg width="13" height="15" viewBox="0 0 13 15" fill="none" xmlns="http://www.w3.org/2000/svg">
<g clip-path="url(#clip0)">
<path d="M11.1055 2.85591C10.4811 2.10637 9.62431 1.69357 8.69279 1.69357C7.9965 1.69357 7.35883 1.9372 6.79745 2.41763C6.51419 2.66014 6.25752 2.95684 6.03122 3.30314C5.80501 2.95694 5.54825 2.66014 5.26489 2.41763C4.70361 1.9372 4.06594 1.69357 3.36964 1.69357C2.43813 1.69357 1.58124 2.10637 0.956826 2.85591C0.339863 3.59668 0 4.60868 0 5.70563C0 6.83467 0.380172 7.86816 1.19638 8.95819C1.92654 9.93322 2.97594 10.923 4.19119 12.0692C4.60615 12.4606 5.07651 12.9043 5.56491 13.3769C5.69393 13.5019 5.85949 13.5708 6.03122 13.5708C6.20285 13.5708 6.3685 13.5019 6.49735 13.3771C6.98574 12.9044 7.45638 12.4605 7.87152 12.0689C9.08658 10.9229 10.136 9.93322 10.8662 8.95809C11.6824 7.86816 12.0624 6.83467 12.0624 5.70553C12.0624 4.60868 11.7226 3.59668 11.1055 2.85591Z" fill="#C4C4C4"/>
</g>
<defs>
<clipPath id="clip0">
<rect width="12.0624" height="13.35" fill="white" transform="translate(0 0.963486)"/>
</clipPath>
</defs>
</svg>
